<svg fill="none" height="100%" width="100%" viewBox="0 0 650 636" xmlns:xlink="http://www.w3.org/1999/xlink" xmlns="http://www.w3.org/2000/svg"><defs><filter id="i0"><feColorMatrix values="0 0 0 0 1 0 0 0 0 1 0 0 0 0 1 0 0 0 1 0" type="matrix" /></filter><mask height="20000" width="20000" y="-10000" x="-10000" maskContentUnits="userSpaceOnUse" maskUnits="userSpaceOnUse" style="mask-type: alpha" mask-type="alpha" id="i1"><g filter="url(#i0)"><g transform="translate(316.613,298.017)"><animateTransform repeatCount="indefinite" type="translate" attributeName="transform" dur="2.9s" begin="0s" calcMode="spline" values="316.613 298.017; 316.613 298.017; 209.613 213.017" keyTimes="0; 0.724138; 1" keySplines="0 0 1 1; 0.539 0 0.959 1" fill="freeze" /><g transform="rotate(-183.229)"><animateTransform repeatCount="indefinite" type="rotate" attributeName="transform" dur="2.9s" begin="0s" calcMode="spline" values="-183.229; -183.229; -129.229; -129.229" keyTimes="0; 0.494253; 0.954023; 1" keySplines="0 0 1 1; 0.333 0 0.667 1; 0 0 1 1" fill="freeze" /><g transform="scale(0.13,0.13)"><animateTransform repeatCount="indefinite" type="scale" attributeName="transform" dur="2.9s" begin="0s" calcMode="spline" values="0.13 0.13; 0.13 0.13; 4.65 4.65; 0.13 0.13" keyTimes="0; 0.413793; 0.678161; 1" keySplines="0 0 1 1; 0.313 0 0.168 1; 0.539 0 0.959 1" fill="freeze" /><g transform="translate(-129,270)"><g transform="matrix(1,0,0,1,0,0)" id="i2"><g id="i3" transform="matrix(1,0,0,1,129,-270)"><ellipse ry="57" rx="57" cy="0" cx="0" fill="#fd33ff" /></g></g></g></g></g></g></g></mask></defs><g id="i4"><g transform="translate(325.625,323.125)"><g transform="scale(1,1)"><animateTransform repeatCount="indefinite" type="scale" attributeName="transform" dur="2.9s" begin="0s" calcMode="spline" values="1 1; 1 1; 0.2 0.2; 0.2 0.2; 1 1; 1 1" keyTimes="0; 0.448276; 0.563218; 0.793103; 0.908046; 1" keySplines="0 0 1 1; 0.333 0 0.27 1; 0.298 0 0.27 1; 0.333 0 0.27 1; 0 0 1 1" fill="freeze" /><g transform="translate(-50,-50)"><g transform="matrix(1,0,0,1,42.375,38.875)" id="i5"><g id="i6"><path fill="#73d2de" d="M-36,-231C-36,-231,-238,-22,-238,-22C-238,-22,42,252,42,252C42,252,244,45,244,45C244,45,-36,-231,-36,-231Z" /></g><g id="i7"><path stroke-width="5" stroke="#ffffff" d="M-97,114C-97,114,105,-94,105,-94" /></g><g id="i8"><path stroke-width="5" stroke="#ffffff" d="M-84,-179C-84,-179,-192,-67.5,-192,-67.5C-192,-67.5,-148,-25,-148,-25C-148,-25,-42,-137,-42,-137C-42,-137,-84,-179,-84,-179Z" /></g><g id="i9"><path stroke-width="5" stroke="#ffffff" d="M-72,-102.375C-72,-102.375,-52.494,-77.506,-72.5,-57.5C-95.5,-34.5,-117,-55,-117,-55" /></g><g id="i10"><path stroke-width="5" stroke="#ffffff" d="M73.125,129.125C73.125,129.125,51.875,99.843,79.5,78C101,61,125,81,125,81" /></g><g id="i11"><path stroke-width="5" stroke="#ffffff" d="M152,50.5C152,50.5,43,162.5,43,162.5C43,162.5,86,204,86,204C86,204,195.5,92.5,195.5,92.5C195.5,92.5,152,50.5,152,50.5Z" /></g></g></g></g></g></g><g id="i4"><g transform="translate(325.625,323.125)"><g transform="scale(1,1)"><animateTransform repeatCount="indefinite" type="scale" attributeName="transform" dur="2.9s" begin="0s" calcMode="spline" values="1 1; 1 1; 0.2 0.2; 0.2 0.2; 1 1; 1 1" keyTimes="0; 0.448276; 0.563218; 0.793103; 0.908046; 1" keySplines="0 0 1 1; 0.333 0 0.27 1; 0.298 0 0.27 1; 0.333 0 0.27 1; 0 0 1 1" fill="freeze" /><g transform="translate(-50,-50)"><g transform="matrix(1.16,0,0,1.16,63.395,57.235)" id="i12"><g id="i3" transform="matrix(1,0,0,1,-122,-108.5)"><ellipse ry="6" rx="6" cy="0" cx="0" fill="#fdc500" /></g><g id="i13" transform="matrix(1,0,0,1,-39.241,-106.345)"><ellipse ry="6" rx="6" cy="0" cx="0" fill="#fdc500" /></g><g id="i14" transform="matrix(1,0,0,1,28.862,-109.793)"><ellipse ry="6" rx="6" cy="0" cx="0" fill="#fdc500" /></g><g id="i15" transform="matrix(1,0,0,1,-32.776,-27.466)"><ellipse ry="6" rx="6" cy="0" cx="0" fill="#fdc500" /></g><g id="i16" transform="matrix(1,0,0,1,-108.638,0.552)"><ellipse ry="6" rx="6" cy="0" cx="0" fill="#fdc500" /></g><g id="i17" transform="matrix(1,0,0,1,-12.086,60.466)"><ellipse ry="6" rx="6" cy="0" cx="0" fill="#40352f" /></g><g id="i18" transform="matrix(1,0,0,1,59.034,-36.948)"><ellipse ry="6" rx="6" cy="0" cx="0" fill="#40352f" /></g><g id="i19" transform="matrix(1,0,0,1,106.879,-3.328)"><ellipse ry="6" rx="6" cy="0" cx="0" fill="#40352f" /></g><g id="i20" transform="matrix(1,0,0,1,92.224,98.397)"><ellipse ry="6" rx="6" cy="0" cx="0" fill="#40352f" /></g></g></g></g></g></g><g opacity="0" id="i4"><g transform="translate(325.625,323.125)"><g transform="scale(1,1)"><animateTransform repeatCount="indefinite" type="scale" attributeName="transform" dur="2.9s" begin="0s" calcMode="spline" values="1 1; 1 1; 0.2 0.2; 0.2 0.2; 1 1; 1 1" keyTimes="0; 0.448276; 0.563218; 0.793103; 0.908046; 1" keySplines="0 0 1 1; 0.333 0 0.27 1; 0.298 0 0.27 1; 0.333 0 0.27 1; 0 0 1 1" fill="freeze" /><g transform="translate(-50,-50)" /></g></g></g><g visibility="visible" id="i21"><animate repeatCount="indefinite" begin="0s" calcMode="discrete" dur="2.9s" values="visible; hidden; hidden" keyTimes="0; 0.126; 1" attributeName="visibility" /><g transform="translate(209.5,213.5)"><animateTransform repeatCount="indefinite" type="translate" attributeName="transform" dur="2.9s" begin="0s" calcMode="spline" values="209.5 213.5; 400 293.5; 400 293.5" keyTimes="0; 0.126437; 1" keySplines="0.333 0 0.667 0.574; 0 0 1 1" fill="freeze" /><g transform="scale(0.88,0.88) translate(85,76)"><g id="i3" transform="matrix(1,0,0,1,-85,-76)"><ellipse ry="9" rx="9" cy="0" cx="0" fill="#d81159" /></g></g></g></g><g transform="matrix(0.88,0,0,0.88,284.3,280.38)" visibility="hidden" id="i22"><animate repeatCount="indefinite" begin="0s" calcMode="discrete" dur="2.9s" values="hidden; visible; visible" keyTimes="0; 0.977; 1" attributeName="visibility" /><g id="i3" transform="matrix(1,0,0,1,-85,-76)"><ellipse ry="9" rx="9" cy="0" cx="0" fill="#d81159" /></g></g><g transform="matrix(1,0,0,1,318,312)" visibility="hidden" id="i23"><animate repeatCount="indefinite" begin="0s" calcMode="discrete" dur="2.9s" values="hidden; visible; visible" keyTimes="0; 0.126; 1" attributeName="visibility" /><g id="i6"><path stroke-linecap="round" stroke-width="15" stroke="#d81159" d="M81.75,-18.75"><set fill="freeze" dur="0.033s" begin="0.36666666666666664s" to="M81.75,-18.75" attributeName="d" /><set fill="freeze" dur="0.033s" begin="0.4s" to="M83.308,-13.289C90.878,13.257,123.442,127.558,123,128C122.999,129.999,-15.499,-98.999,-18,-97.5C-21.5,-98.499,10,78.999,12.5,80C15.499,80.999,53.974,-106.872,53.001,-107C52.5,-108.5,-6.495,-5.008,-6.5,-5C-6.5,-5,-31.5,108,-31.5,108M81.75,-18.75" attributeName="d" /><set fill="freeze" dur="0.033s" begin="0.43333333333333335s" to="M88.344,4.383C100.088,45.63,123.374,127.625,123,128C122.999,129.999,-15.499,-98.999,-18,-97.5C-21.5,-98.499,10,78.999,12.5,80C15.499,80.999,53.974,-106.872,53.001,-107C52.5,-108.5,-6.495,-5.008,-6.5,-5C-6.5,-5,-31.5,108,-31.5,108M81.75,-18.75C81.75,-18.75,82.115,-17.471,82.776,-15.152" attributeName="d" /><set fill="freeze" dur="0.033s" begin="0.4666666666666667s" to="M96.77,34.016C108.683,75.969,123.297,127.703,123,128C122.999,129.999,-15.499,-98.999,-18,-97.5C-21.5,-98.499,10,78.999,12.5,80C15.499,80.999,53.974,-106.872,53.001,-107C52.5,-108.5,-6.495,-5.008,-6.5,-5C-6.5,-5,-31.5,108,-31.5,108M81.75,-18.75C81.75,-18.75,83.276,-13.406,85.74,-4.757" attributeName="d" /><set fill="freeze" dur="0.033s" begin="0.5s" to="M107.413,71.582C115.92,101.702,123.211,127.789,123,128C122.999,129.999,-15.499,-98.999,-18,-97.5C-21.5,-98.499,10,78.999,12.5,80C15.499,80.999,53.974,-106.872,53.001,-107C52.5,-108.5,-6.495,-5.008,-6.5,-5C-6.5,-5,-31.5,108,-31.5,108M81.75,-18.75C81.75,-18.75,85.371,-6.067,90.467,11.843" attributeName="d" /><set fill="freeze" dur="0.033s" begin="0.5333333333333333s" to="M119.047,113.071C121.569,122.19,123.098,127.902,123,128C122.999,129.999,-15.499,-98.999,-18,-97.5C-21.5,-98.499,10,78.999,12.5,80C15.499,80.999,53.974,-106.872,53.001,-107C52.5,-108.5,-6.495,-5.008,-6.5,-5C-6.5,-5,-31.5,108,-31.5,108M81.75,-18.75C81.75,-18.75,88.636,5.371,96.781,34.054" attributeName="d" /><set fill="freeze" dur="0.033s" begin="0.5666666666666667s" to="M108.329,104.772C72.629,46.945,-16.004,-98.697,-18,-97.5C-21.5,-98.499,10,78.999,12.5,80C15.499,80.999,53.974,-106.872,53.001,-107C52.5,-108.5,-6.495,-5.008,-6.5,-5C-6.5,-5,-31.5,108,-31.5,108M81.75,-18.75C81.75,-18.75,93.531,22.518,104.501,61.285" attributeName="d" /><set fill="freeze" dur="0.033s" begin="0.6s" to="M88.11,71.901C46.903,4.782,-16.318,-98.508,-18,-97.5C-21.5,-98.499,10,78.999,12.5,80C15.499,80.999,53.974,-106.872,53.001,-107C52.5,-108.5,-6.495,-5.008,-6.5,-5C-6.5,-5,-31.5,108,-31.5,108M81.75,-18.75C81.75,-18.75,101.246,49.544,113.433,92.954" attributeName="d" /><set fill="freeze" dur="0.033s" begin="0.6333333333333333s" to="M68.812,40.461C29.674,-23.286,-16.565,-98.36,-18,-97.5C-21.5,-98.499,10,78.999,12.5,80C15.499,80.999,53.974,-106.872,53.001,-107C52.5,-108.5,-6.495,-5.008,-6.5,-5C-6.5,-5,-31.5,108,-31.5,108M81.75,-18.75C81.75,-18.749,123.5,127.499,123,128C123,128.058,122.882,127.92,122.653,127.597" attributeName="d" /><set fill="freeze" dur="0.033s" begin="0.6666666666666666s" to="M47.731,6.163C14.761,-47.4,-16.818,-98.209,-18,-97.5C-21.5,-98.499,10,78.999,12.5,80C15.499,80.999,53.974,-106.872,53.001,-107C52.5,-108.5,-6.495,-5.008,-6.5,-5C-6.5,-5,-31.5,108,-31.5,108M81.75,-18.75C81.75,-18.749,123.5,127.499,123,128C123,128.5,114.351,114.575,101.338,93.427" attributeName="d" /><set fill="freeze" dur="0.033s" begin="0.7s" to="M25.136,-30.441C1.62,-68.399,-17.095,-98.043,-18,-97.5C-21.5,-98.499,10,78.999,12.5,80C15.499,80.999,53.974,-106.872,53.001,-107C52.5,-108.5,-6.495,-5.008,-6.5,-5C-6.5,-5,-31.5,108,-31.5,108M81.75,-18.75C81.75,-18.749,123.5,127.499,123,128C123,128.752,103.405,96.823,78.824,56.771" attributeName="d" /><set fill="freeze" dur="0.033s" begin="0.7333333333333333s" to="M1.224,-68.748C-9.986,-86.5,-17.437,-97.837,-18,-97.5C-21.5,-98.499,10,78.999,12.5,80C15.499,80.999,53.974,-106.872,53.001,-107C52.5,-108.5,-6.495,-5.008,-6.5,-5C-6.5,-5,-31.5,108,-31.5,108M81.75,-18.75C81.75,-18.749,123.5,127.499,123,128C123,128.983,89.524,74.133,55.191,18.289" attributeName="d" /><set fill="freeze" dur="0.033s" begin="0.7666666666666667s" to="M-17.237,-85.596C-12.113,-45.945,10.402,79.16,12.5,80C15.499,80.999,53.974,-106.872,53.001,-107C52.5,-108.5,-6.495,-5.008,-6.5,-5C-6.5,-5,-31.5,108,-31.5,108M81.75,-18.75C81.75,-18.749,123.5,127.499,123,128C123,129.219,71.462,44.481,30.696,-21.458" attributeName="d" /><set fill="freeze" dur="0.033s" begin="0.8s" to="M-9.964,-38.536C-1.382,12.883,10.972,79.389,12.5,80C15.499,80.999,53.974,-106.872,53.001,-107C52.5,-108.5,-6.495,-5.008,-6.5,-5C-6.5,-5,-31.5,108,-31.5,108M81.75,-18.75C81.75,-18.749,123.5,127.499,123,128C123,129.494,45.69,2.046,5.548,-61.881" attributeName="d" /><set fill="freeze" dur="0.033s" begin="0.8333333333333334s" to="M-1.784,8.691C4.949,46.305,11.422,79.568,12.5,80C15.499,80.999,53.974,-106.872,53.001,-107C52.5,-108.5,-6.495,-5.008,-6.5,-5C-6.5,-5,-31.5,108,-31.5,108M81.75,-18.75C81.75,-18.749,123.5,127.499,123,128C122.999,129.999,-15.499,-98.999,-18,-97.5C-18.363,-97.604,-18.349,-95.786,-18.03,-92.442" attributeName="d" /><set fill="freeze" dur="0.033s" begin="0.8666666666666667s" to="M6.93,55.509C9.805,70.155,11.924,79.769,12.5,80C15.499,80.999,53.974,-106.872,53.001,-107C52.5,-108.5,-6.495,-5.008,-6.5,-5C-6.5,-5,-31.5,108,-31.5,108M81.75,-18.75C81.75,-18.749,123.5,127.499,123,128C122.999,129.999,-15.499,-98.999,-18,-97.5C-19.266,-97.861,-15.954,-74.875,-11.091,-45.335" attributeName="d" /><set fill="freeze" dur="0.033s" begin="0.9s" to="M18.337,59.348C29.847,10.723,53.771,-106.898,53.001,-107C52.5,-108.5,-6.495,-5.008,-6.5,-5C-6.5,-5,-31.5,108,-31.5,108M81.75,-18.75C81.75,-18.749,123.5,127.499,123,128C122.999,129.999,-15.499,-98.999,-18,-97.5C-19.884,-98.038,-11.624,-46.841,-3.207,0.698" attributeName="d" /><set fill="freeze" dur="0.033s" begin="0.9333333333333333s" to="M28.197,15.272C39.861,-38.732,53.587,-106.923,53.001,-107C52.5,-108.5,-6.495,-5.008,-6.5,-5C-6.5,-5,-31.5,108,-31.5,108M81.75,-18.75C81.75,-18.749,123.5,127.499,123,128C122.999,129.999,-15.499,-98.999,-18,-97.5C-20.515,-98.218,-4.958,-6.767,4.926,45.133" attributeName="d" /><set fill="freeze" dur="0.033s" begin="0.9666666666666667s" to="M37.119,-26.815C45.855,-68.698,53.44,-106.942,53.001,-107C52.5,-108.5,-6.495,-5.008,-6.5,-5C-6.5,-5,-31.5,108,-31.5,108M81.75,-18.75C81.75,-18.749,123.5,127.499,123,128C122.999,129.999,-15.499,-98.999,-18,-97.5C-21.5,-98.499,10,78.999,12.5,80C12.852,80.117,13.691,77.637,14.898,73.166" attributeName="d" /><set fill="freeze" dur="0.033s" begin="1s" to="M45.227,-66.255C50.025,-89.975,53.293,-106.961,53.001,-107C52.5,-108.5,-6.495,-5.008,-6.5,-5C-6.5,-5,-31.5,108,-31.5,108M81.75,-18.75C81.75,-18.749,123.5,127.499,123,128C122.999,129.999,-15.499,-98.999,-18,-97.5C-21.5,-98.499,10,78.999,12.5,80C13.476,80.325,18.206,60.659,24.112,33.971" attributeName="d" /><set fill="freeze" dur="0.033s" begin="1.0333333333333334s" to="M52.321,-102.464C52.845,-105.377,53.091,-106.988,53.001,-107C52.5,-108.5,-6.495,-5.008,-6.5,-5C-6.5,-5,-31.5,108,-31.5,108M81.75,-18.75C81.75,-18.749,123.5,127.499,123,128C122.999,129.999,-15.499,-98.999,-18,-97.5C-21.5,-98.499,10,78.999,12.5,80C13.882,80.46,22.798,40.812,31.915,-2.089" attributeName="d" /><set fill="freeze" dur="0.033s" begin="1.0666666666666667s" to="M38.299,-82.845C20.679,-52.679,-6.497,-5.006,-6.5,-5C-6.5,-5,-31.5,108,-31.5,108M81.75,-18.75C81.75,-18.749,123.5,127.499,123,128C122.999,129.999,-15.499,-98.999,-18,-97.5C-21.5,-98.499,10,78.999,12.5,80C14.228,80.575,27.726,18.481,38.676,-34.299" attributeName="d" /><set fill="freeze" dur="0.033s" begin="1.1s" to="M24.095,-58.352C8.944,-32.093,-6.498,-5.004,-6.5,-5C-6.5,-5,-31.5,108,-31.5,108M81.75,-18.75C81.75,-18.749,123.5,127.499,123,128C122.999,129.999,-15.499,-98.999,-18,-97.5C-21.5,-98.499,10,78.999,12.5,80C14.545,80.681,33.091,-6.482,44.371,-62.03" attributeName="d" /><set fill="freeze" dur="0.033s" begin="1.1333333333333333s" to="M12.576,-38.334C2.002,-19.914,-6.498,-5.003,-6.5,-5C-6.5,-5,-31.5,108,-31.5,108M81.75,-18.75C81.75,-18.749,123.5,127.499,123,128C122.999,129.999,-15.499,-98.999,-18,-97.5C-21.5,-98.499,10,78.999,12.5,80C14.855,80.784,39.086,-34.895,48.912,-84.675" attributeName="d" /><set fill="freeze" dur="0.033s" begin="1.1666666666666667s" to="M3.991,-23.358C-2.243,-12.467,-6.499,-5.002,-6.5,-5C-6.5,-5,-31.5,108,-31.5,108M81.75,-18.75C81.75,-18.749,123.5,127.499,123,128C122.999,129.999,-15.499,-98.999,-18,-97.5C-21.5,-98.499,10,78.999,12.5,80C15.499,80.999,53.974,-106.872,53.001,-107C52.935,-107.195,51.879,-105.612,50.091,-102.71" attributeName="d" /><set fill="freeze" dur="0.033s" begin="1.2s" to="M-1.377,-13.973C-4.558,-8.407,-6.499,-5.002,-6.5,-5C-6.5,-5,-31.5,108,-31.5,108M81.75,-18.75C81.75,-18.749,123.5,127.499,123,128C122.999,129.999,-15.499,-98.999,-18,-97.5C-21.5,-98.499,10,78.999,12.5,80C15.499,80.999,53.974,-106.872,53.001,-107C52.799,-107.602,43.163,-91.27,31.703,-71.508" attributeName="d" /><set fill="freeze" dur="0.033s" begin="1.2333333333333334s" to="M-3.233,-10.724C-5.296,-7.111,-6.499,-5.001,-6.5,-5C-6.5,-5,-31.5,108,-31.5,108M81.75,-18.75C81.75,-18.749,123.5,127.499,123,128C122.999,129.999,-15.499,-98.999,-18,-97.5C-21.5,-98.499,10,78.999,12.5,80C15.499,80.999,53.974,-106.872,53.001,-107C52.702,-107.893,31.664,-71.56,14.69,-42.016" attributeName="d" /><set fill="freeze" dur="0.033s" begin="1.2666666666666666s" to="M-3.233,-10.724C-5.296,-7.111,-6.499,-5.001,-6.5,-5C-6.5,-5,-31.5,108,-31.5,108M81.75,-18.75C81.75,-18.749,123.5,127.499,123,128C122.999,129.999,-15.499,-98.999,-18,-97.5C-21.5,-98.499,10,78.999,12.5,80C15.499,80.999,53.974,-106.872,53.001,-107C52.62,-108.14,18.433,-48.601,2.058,-19.98" attributeName="d" /><set fill="freeze" dur="0.033s" begin="1.3s" to="M-3.233,-10.724" attributeName="d" /></path></g></g><g visibility="hidden" id="i24"><animate repeatCount="indefinite" begin="0s" calcMode="discrete" dur="2.9s" values="hidden; visible; hidden; hidden" keyTimes="0; 0.414; 0.977; 1" attributeName="visibility" /><g transform="translate(316.613,298.017)"><animateTransform repeatCount="indefinite" type="translate" attributeName="transform" dur="2.9s" begin="0s" calcMode="spline" values="316.613 298.017; 316.613 298.017; 209.613 213.017" keyTimes="0; 0.724138; 1" keySplines="0 0 1 1; 0.539 0 0.959 1" fill="freeze" /><g transform="rotate(-183.229)"><animateTransform repeatCount="indefinite" type="rotate" attributeName="transform" dur="2.9s" begin="0s" calcMode="spline" values="-183.229; -183.229; -129.229; -129.229" keyTimes="0; 0.494253; 0.954023; 1" keySplines="0 0 1 1; 0.333 0 0.667 1; 0 0 1 1" fill="freeze" /><g transform="scale(0.13,0.13)"><animateTransform repeatCount="indefinite" type="scale" attributeName="transform" dur="2.9s" begin="0s" calcMode="spline" values="0.13 0.13; 0.13 0.13; 4.65 4.65; 0.13 0.13" keyTimes="0; 0.413793; 0.678161; 1" keySplines="0 0 1 1; 0.313 0 0.168 1; 0.539 0 0.959 1" fill="freeze" /><g transform="translate(-129,270)"><g id="i3" transform="matrix(1,0,0,1,129,-270)"><ellipse ry="57" rx="57" cy="0" cx="0" fill="#d81159" /></g></g></g></g></g></g><g mask="url(#i1)" id="i24"><g transform="translate(316.613,298.017)"><animateTransform repeatCount="indefinite" type="translate" attributeName="transform" dur="2.9s" begin="0s" calcMode="spline" values="316.613 298.017; 316.613 298.017; 209.613 213.017" keyTimes="0; 0.724138; 1" keySplines="0 0 1 1; 0.539 0 0.959 1" fill="freeze" /><g transform="rotate(-183.229)"><animateTransform repeatCount="indefinite" type="rotate" attributeName="transform" dur="2.9s" begin="0s" calcMode="spline" values="-183.229; -183.229; -129.229; -129.229" keyTimes="0; 0.494253; 0.954023; 1" keySplines="0 0 1 1; 0.333 0 0.667 1; 0 0 1 1" fill="freeze" /><g transform="scale(0.13,0.13)"><animateTransform repeatCount="indefinite" type="scale" attributeName="transform" dur="2.9s" begin="0s" calcMode="spline" values="0.13 0.13; 0.13 0.13; 4.65 4.65; 0.13 0.13" keyTimes="0; 0.413793; 0.678161; 1" keySplines="0 0 1 1; 0.313 0 0.168 1; 0.539 0 0.959 1" fill="freeze" /><g transform="translate(-129,270)"><g visibility="hidden" id="i25"><animate repeatCount="indefinite" begin="0s" calcMode="discrete" dur="2.9s" values="hidden; visible; hidden; hidden" keyTimes="0; 0.414; 0.977; 1" attributeName="visibility" /><g transform="translate(131.999,-269.48)"><animateTransform repeatCount="indefinite" type="translate" attributeName="transform" dur="2.9s" begin="0s" calcMode="spline" values="131.999 -269.48; 131.999 -269.48; 111.883 -285.708; 111.883 -285.708" keyTimes="0; 0.494253; 0.977011; 1" keySplines="0 0 1 1; 0.311 0 0.678 1; 0 0 1 1" fill="freeze" /><g transform="scale(1.396,1.396) translate(0,0)"><g id="i26"><path fill="#40352f" d="M53.46,-1.924C53.46,-1.924,49.066,-3.517,41.318,-5.866C41.318,-5.866,31.619,6.583,31.619,6.583C31.593,6.563,31.564,6.547,31.53,6.539C31.53,6.539,13.747,2.628,13.747,2.628C13.699,2.618,13.653,2.628,13.611,2.646C13.611,2.646,7.219,-12.025,7.219,-12.025C7.253,-12.04,7.286,-12.062,7.31,-12.094C7.31,-12.094,17.882,-25.991,17.882,-25.991C17.905,-26.021,17.916,-26.054,17.922,-26.089C17.922,-26.089,34.871,-23.117,34.871,-23.117C36.193,-25.905,43.365,-36.704,43.365,-36.704C43.365,-36.704,35.896,-53.673,35.896,-53.673C35.896,-53.673,18.1,-54.49,18.1,-54.49C18.1,-54.49,8.768,-44.188,6.393,-41.47C6.393,-41.47,17.571,-26.306,17.571,-26.306C17.554,-26.294,17.536,-26.282,17.523,-26.264C17.523,-26.264,6.951,-12.367,6.951,-12.367C6.915,-12.32,6.902,-12.263,6.907,-12.209C6.907,-12.209,-9.027,-10.663,-9.027,-10.663C-9.032,-10.71,-9.04,-10.758,-9.074,-10.795C-9.074,-10.795,-20.622,-23.431,-20.622,-23.431C-20.64,-23.451,-20.668,-23.452,-20.691,-23.464C-20.691,-23.464,-11.81,-40.256,-11.81,-40.256C-13.21,-43.743,-21.98,-49.722,-21.98,-49.722C-21.98,-49.722,-40.145,-49.656,-40.145,-49.656C-40.145,-49.656,-46.423,-30.661,-46.423,-30.661C-46.423,-30.661,-38.808,-20.681,-37.14,-19.25C-37.14,-19.25,-20.991,-23.229,-20.991,-23.229C-20.982,-23.193,-20.981,-23.157,-20.955,-23.128C-20.955,-23.128,-9.407,-10.491,-9.407,-10.491C-9.374,-10.455,-9.332,-10.437,-9.288,-10.427C-9.288,-10.427,-12.742,5.202,-12.742,5.202C-12.783,5.193,-12.827,5.192,-12.869,5.207C-12.869,5.207,-30.054,11.693,-30.054,11.693C-30.086,11.705,-30.113,11.724,-30.135,11.747C-30.135,11.747,-41.706,0.483,-41.706,0.483C-49.069,5.812,-55.253,8.278,-55.253,8.278C-55.253,8.278,-58.939,24.182,-58.939,24.182C-58.939,24.182,-44.72,32.275,-44.72,32.275C-44.72,32.275,-35.076,28.759,-30.453,28.259C-30.453,28.259,-29.981,12.127,-29.981,12.127C-29.979,12.127,-29.976,12.129,-29.974,12.129C-29.948,12.129,-29.921,12.125,-29.895,12.115C-29.895,12.115,-12.71,5.629,-12.71,5.629C-12.66,5.61,-12.623,5.573,-12.598,5.53C-12.598,5.53,1.197,13.643,1.197,13.643C1.175,13.68,1.16,13.722,1.163,13.768C1.163,13.768,2.136,31.024,2.136,31.024C2.138,31.055,2.146,31.083,2.159,31.109C2.159,31.109,-14.145,39.009,-14.145,39.009C-11.568,46.297,-9.151,52.664,-9.151,52.664C-9.151,52.664,5.569,55.315,5.569,55.315C5.569,55.315,18.927,49.095,18.927,49.095C18.927,49.095,18.656,41.633,19.139,36.813C19.139,36.813,2.574,31.085,2.574,31.085C2.583,31.058,2.588,31.028,2.586,30.998C2.586,30.998,1.613,13.743,1.613,13.743C1.61,13.692,1.586,13.647,1.553,13.61C1.553,13.61,13.533,2.995,13.533,2.995C13.564,3.03,13.603,3.057,13.651,3.068C13.651,3.068,31.433,6.98,31.433,6.98C31.449,6.984,31.466,6.985,31.482,6.985C31.492,6.985,31.499,6.976,31.509,6.975C31.509,6.975,33.705,24.311,33.705,24.311C38.245,24.282,51.465,23.526,51.465,23.526C51.465,23.526,58.72,12.236,58.72,12.236C58.72,12.236,53.46,-1.924,53.46,-1.924Z" /></g></g></g></g></g></g></g></g></g><g display="none" id="i24"><g transform="translate(316.613,298.017)"><animateTransform repeatCount="indefinite" type="translate" attributeName="transform" dur="2.9s" begin="0s" calcMode="spline" values="316.613 298.017; 316.613 298.017; 209.613 213.017" keyTimes="0; 0.724138; 1" keySplines="0 0 1 1; 0.539 0 0.959 1" fill="freeze" /><g transform="rotate(-183.229)"><animateTransform repeatCount="indefinite" type="rotate" attributeName="transform" dur="2.9s" begin="0s" calcMode="spline" values="-183.229; -183.229; -129.229; -129.229" keyTimes="0; 0.494253; 0.954023; 1" keySplines="0 0 1 1; 0.333 0 0.667 1; 0 0 1 1" fill="freeze" /><g transform="scale(0.13,0.13)"><animateTransform repeatCount="indefinite" type="scale" attributeName="transform" dur="2.9s" begin="0s" calcMode="spline" values="0.13 0.13; 0.13 0.13; 4.65 4.65; 0.13 0.13" keyTimes="0; 0.413793; 0.678161; 1" keySplines="0 0 1 1; 0.313 0 0.168 1; 0.539 0 0.959 1" fill="freeze" /><g transform="translate(-129,270)"><g transform="matrix(1,0,0,1,0,0)" visibility="hidden" id="i2"><animate repeatCount="indefinite" begin="0s" calcMode="discrete" dur="2.9s" values="hidden; visible; hidden; hidden" keyTimes="0; 0.414; 0.977; 1" attributeName="visibility" /><g id="i3" transform="matrix(1,0,0,1,129,-270)"><ellipse ry="57" rx="57" cy="0" cx="0" fill="#fd33ff" /></g></g></g></g></g></g></g></svg>